<?xml version="1.0" encoding="utf-8"?>
<!-- Generator: Adobe Illustrator 23.0.3, SVG Export Plug-In . SVG Version: 6.00 Build 0)  -->
<svg version="1.1" id="Capa_1" xmlns="http://www.w3.org/2000/svg" xmlns:xlink="http://www.w3.org/1999/xlink" x="0px" y="0px"
	 viewBox="0 0 417.9 417.9" style="enable-background:new 0 0 417.9 417.9;" xml:space="preserve">
<style type="text/css">
	.st0{fill:#FFFFFF;}
</style>
<path class="st0" d="M415,147.2c-1-2.9-4.5-5.1-7.5-5.1c-12.7,0-25.5,0-38.2,0c-2.5,0-5.3,1.6-6.8,3.8c-8-19.1-17.3-38.7-26.1-52.4
	c-1.6-2.5-4-4.3-6.8-5.1c-1.6-0.5-40.5-12.2-120.7-12.2S89.8,87.9,88.2,88.4c-2.8,0.9-5.2,2.7-6.8,5.1
	c-8.9,13.6-18.1,33.3-26.1,52.4c-1.5-2.2-4.3-3.8-6.8-3.8c-12.7,0-25.5,0-38.2,0c-2.9,0-6.5,2.3-7.5,5.1c-3.9,11.3-3.9,17.7,0,29
	c1,2.9,4.5,5.1,7.5,5.1c6.7,0,13.4,0,20.1,0c-9.3,9.4-15.1,22.2-15.1,36.5c0,0.7,0,1.3,0.1,2l1.2,8.9c0.4,3,1.7,5.6,3.5,7.7v20.2H19
	c-2.8,0-5,2.2-5,5v59.8c0,11.2,9.1,20.3,20.3,20.3h40.6c11.2,0,20.3-9.1,20.3-20.3v-25.7h229.7v25.7c0,11.2,9.1,20.3,20.3,20.3h40.6
	c11.2,0,20.3-9.1,20.3-20.3v-59.8c0-2.8-2.2-5-5-5h-1.2v-18.2c3-2.3,5.1-5.7,5.6-9.7l1.2-8.9c0.1-0.7,0.1-1.3,0.1-2
	c0-14.2-5.8-27.1-15.1-36.5c5.3,0,10.6,0,15.9,0c2.9,0,6.5-2.3,7.5-5.1C418.9,164.9,418.9,158.5,415,147.2z M99.9,111.2
	c11.8-2.8,47.8-10,109.1-10s97.3,7.2,109.1,10c8.4,13.9,17.1,33.5,24.6,51.8c-19.6-3.2-58.3-6.8-132.6-6.8c-79,0-117.1,4.2-135,7.5
	C82.5,145.2,91.4,125.2,99.9,111.2z M30.7,284.5v-13h35.5l3.7,13H30.7z M30.2,256.6V232l69,4.4l6.7,20.1H30.2V256.6z M294.8,282.5
	H125.2l-5.2-16.9h180L294.8,282.5z M303.6,256.6H116.4l-5.1-15.1h197.3L303.6,256.6z M108.3,232l-5.2-16.8h213.7l-5.2,16.8H108.3z
	 M389.3,284.5h-39.2l3.7-13h35.5V284.5L389.3,284.5z M389.8,256.6h-75.7l6.7-20.1l69-4.4V256.6z"/>
</svg>
